<?xml version="1.0" encoding="UTF-8" standalone="no"?>
<!-- The icon can be used freely in both personal and commercial projects with no attribution required, but always appreciated. 
You may NOT sub-license, resell, rent, redistribute or otherwise transfer the icon without express written permission from iconmonstr.com -->

<svg
   xmlns:dc="http://purl.org/dc/elements/1.1/"
   xmlns:cc="http://creativecommons.org/ns#"
   xmlns:rdf="http://www.w3.org/1999/02/22-rdf-syntax-ns#"
   xmlns:svg="http://www.w3.org/2000/svg"
   xmlns="http://www.w3.org/2000/svg"
   xmlns:sodipodi="http://sodipodi.sourceforge.net/DTD/sodipodi-0.dtd"
   xmlns:inkscape="http://www.inkscape.org/namespaces/inkscape"
   version="1.1"
   x="0px"
   y="0px"
   width="512px"
   height="512px"
   viewBox="0 0 512 512"
   enable-background="new 0 0 512 512"
   xml:space="preserve"
   id="svg2"
   inkscape:version="0.91 r13725"
   sodipodi:docname="book.svg"><metadata
     id="metadata9"><rdf:RDF><cc:Work
         rdf:about=""><dc:format>image/svg+xml</dc:format><dc:type
           rdf:resource="http://purl.org/dc/dcmitype/StillImage" /></cc:Work></rdf:RDF></metadata><defs
     id="defs7" /><sodipodi:namedview
     pagecolor="#ffffff"
     bordercolor="#666666"
     borderopacity="1"
     objecttolerance="10"
     gridtolerance="10"
     guidetolerance="10"
     inkscape:pageopacity="0"
     inkscape:pageshadow="2"
     inkscape:window-width="1920"
     inkscape:window-height="1022"
     id="namedview5"
     showgrid="false"
     inkscape:zoom="0.4609375"
     inkscape:cx="-74.847458"
     inkscape:cy="256"
     inkscape:window-x="1366"
     inkscape:window-y="29"
     inkscape:window-maximized="1"
     inkscape:current-layer="svg2" /><path
     id="book-19-icon"
     d="M256,141.173c-50.447-31.404-127.301-44.056-206-46.457V378.05  c67.583,2.062,133.805,11.684,183.111,34.248c14.539,6.654,31.254,6.645,45.793-0.008c49.305-22.559,115.521-32.178,183.096-34.24  V94.716C383.301,97.117,306.445,109.769,256,141.173z M90,137.012c47.503,3.985,105.513,13.64,146,38.827v194.238  c-39.319-15.602-88.158-25.64-146-29.987V137.012z M422,340.09c-57.842,4.348-106.682,14.386-146,29.987V175.839  c40.486-25.188,98.496-34.842,146-38.827V340.09z M218.666,182.694v21.076c-31.635-10.744-63.682-17.659-101.666-21.889v-20.121  C154.872,165.848,187.093,172.477,218.666,182.694z M117,325.882c37.984,4.229,70.031,11.145,101.666,21.889v-21.076  c-31.573-10.218-63.794-16.847-101.666-20.934V325.882z M117,289.382c37.984,4.229,70.031,11.145,101.666,21.889v-21.076  c-31.573-10.218-63.794-16.847-101.666-20.934V289.382z M117,217.882c37.984,4.229,70.031,11.145,101.666,21.889v-21.076  c-31.573-10.218-63.794-16.847-101.666-20.934V217.882z M117,253.382c37.984,4.229,70.031,11.145,101.666,21.889v-21.076  c-31.573-10.218-63.794-16.847-101.666-20.934V253.382z M395,161.761v20.121c-37.984,4.229-70.033,11.145-101.666,21.889v-21.076  C324.906,172.477,357.127,165.848,395,161.761z M395,305.761c-37.873,4.087-70.094,10.716-101.666,20.934v21.076  c31.633-10.744,63.682-17.659,101.666-21.889V305.761z M395,269.261c-37.873,4.087-70.094,10.716-101.666,20.934v21.076  c31.633-10.744,63.682-17.659,101.666-21.889V269.261z M395,197.761c-37.873,4.087-70.094,10.716-101.666,20.934v21.076  c31.633-10.744,63.682-17.659,101.666-21.889V197.761z M395,233.261c-37.873,4.087-70.094,10.716-101.666,20.934v21.076  c31.633-10.744,63.682-17.659,101.666-21.889V233.261z"
     style="fill:#2c5aa0" /></svg>